<?xml version="1.0" encoding="UTF-8" standalone="no"?>
<!-- Created with Inkscape (http://www.inkscape.org/) -->

<svg
   width="48"
   height="48"
   viewBox="0 0 12.7 12.7"
   version="1.1"
   id="svg5"
   inkscape:version="1.1.2 (0a00cf5339, 2022-02-04)"
   sodipodi:docname="median.svg"
   inkscape:export-filename="D:\Desktop\mmm.png"
   inkscape:export-xdpi="120"
   inkscape:export-ydpi="120"
   xmlns:inkscape="http://www.inkscape.org/namespaces/inkscape"
   xmlns:sodipodi="http://sodipodi.sourceforge.net/DTD/sodipodi-0.dtd"
   xmlns="http://www.w3.org/2000/svg"
   xmlns:svg="http://www.w3.org/2000/svg"
   xmlns:rdf="http://www.w3.org/1999/02/22-rdf-syntax-ns#"
   xmlns:cc="http://creativecommons.org/ns#"
   xmlns:dc="http://purl.org/dc/elements/1.1/">
  <metadata
     id="metadata9">
    <rdf:RDF>
      <cc:Work
         rdf:about="">
        <dc:format>image/svg+xml</dc:format>
        <dc:type
           rdf:resource="http://purl.org/dc/dcmitype/StillImage" />
      </cc:Work>
    </rdf:RDF>
  </metadata>
  <sodipodi:namedview
     id="namedview7"
     pagecolor="#505050"
     bordercolor="#eeeeee"
     borderopacity="1"
     inkscape:pageshadow="0"
     inkscape:pageopacity="0"
     inkscape:pagecheckerboard="0"
     inkscape:document-units="mm"
     showgrid="false"
     units="px"
     inkscape:lockguides="false"
     inkscape:zoom="12.443434"
     inkscape:cx="15.871824"
     inkscape:cy="24.229646"
     inkscape:window-width="2560"
     inkscape:window-height="1408"
     inkscape:window-x="2560"
     inkscape:window-y="0"
     inkscape:window-maximized="1"
     inkscape:current-layer="layer1"
     inkscape:snap-bbox="true"
     showguides="false" />
  <defs
     id="defs2">
    <marker
       inkscape:stockid="TriangleOutM"
       orient="auto"
       refY="0.0"
       refX="0.0"
       id="marker4863"
       style="overflow:visible"
       inkscape:isstock="true">
      <path
         id="path4861"
         d="M 5.77,0.0 L -2.88,5.0 L -2.88,-5.0 L 5.77,0.0 z "
         style="fill-rule:evenodd;stroke:#000000;stroke-width:1pt;stroke-opacity:1;fill:#000000;fill-opacity:1"
         transform="scale(0.4)" />
    </marker>
    <marker
       inkscape:stockid="TriangleOutM"
       orient="auto"
       refY="0.0"
       refX="0.0"
       id="TriangleOutM"
       style="overflow:visible"
       inkscape:isstock="true">
      <path
         id="path4698"
         d="M 5.77,0.0 L -2.88,5.0 L -2.88,-5.0 L 5.77,0.0 z "
         style="fill-rule:evenodd;stroke:#000000;stroke-width:1pt;stroke-opacity:1;fill:#000000;fill-opacity:1"
         transform="scale(0.4)" />
    </marker>
    <marker
       inkscape:stockid="Arrow2Mend"
       orient="auto"
       refY="0.0"
       refX="0.0"
       id="Arrow2Mend"
       style="overflow:visible;"
       inkscape:isstock="true">
      <path
         id="path4580"
         style="fill-rule:evenodd;stroke-width:0.625;stroke-linejoin:round;stroke:#000000;stroke-opacity:1;fill:#000000;fill-opacity:1"
         d="M 8.7185878,4.0337352 L -2.2072895,0.016013256 L 8.7185884,-4.0017078 C 6.9730900,-1.6296469 6.9831476,1.6157441 8.7185878,4.0337352 z "
         transform="scale(0.6) rotate(180) translate(0,0)" />
    </marker>
  </defs>
  <g
     inkscape:label="Layer 1"
     inkscape:groupmode="layer"
     id="layer1">
    <rect
       style="fill:#999999;fill-opacity:1;stroke-width:0.338454"
       id="rect808-3-6-7-2"
       width="10.583333"
       height="10.583333"
       x="1.0583333"
       y="1.0583333" />
    <rect
       style="fill:#ffffff;fill-opacity:1;stroke-width:0.304609"
       id="rect808-3-6-7"
       width="9.5249996"
       height="9.5249996"
       x="1.5875"
       y="1.5875" />
    <g
       aria-label="x̃"
       id="text16868"
       style="font-size:10.5833px;line-height:1.25;stroke-width:0.264583">
      <path
         d="M 3.5568977,9.6340267 4.1563424,9.5151713 5.8048153,7.4584558 4.2080186,5.4689195 3.6085739,5.3500641 V 4.6937755 H 5.7996477 V 5.3500641 L 5.2932202,5.4120756 6.3370809,6.7556586 7.3861091,5.406908 6.8848493,5.3500641 V 4.6937755 H 9.0914259 V 5.3500641 L 8.4919812,5.4689195 6.8951846,7.4584558 8.5384899,9.5151713 9.1431022,9.6340267 V 10.285148 H 6.9520284 V 9.6340267 L 7.4481206,9.5771828 6.3525837,8.1715883 5.2570469,9.5771828 5.7583067,9.6340267 v 0.6511213 h -2.201409 z"
         style="font-family:'Roboto Slab';-inkscape-font-specification:'Roboto Slab'"
         id="path960" />
      <path
         d="m 8.3782933,3.8307818 z m 0,-1.2505657 q 0,0.485757 -0.3048899,0.8216527 -0.3100576,0.3358957 -0.7751441,0.3358957 -0.3669015,0 -0.7648087,-0.2377108 -0.3979073,-0.2428784 -0.6614562,-0.2428784 -0.2170404,0 -0.3669015,0.1705316 Q 5.350064,3.593071 5.350064,3.8307818 L 4.797128,3.6964235 q 0,-0.4805893 0.30489,-0.8319879 0.2997223,-0.3565662 0.7699764,-0.3565662 0.2893871,0 0.7234677,0.2428784 0.4340806,0.2428785 0.7027972,0.2428785 0.2118727,0 0.3669015,-0.1653641 0.1550288,-0.1705317 0.1550288,-0.4134101 z"
         style="font-family:'Roboto Slab';-inkscape-font-specification:'Roboto Slab'"
         id="path962" />
    </g>
  </g>
</svg>
